<svg width="512" height="135" viewBox="0 0 512 135" fill="#1DC241" xmlns="http://www.w3.org/2000/svg" shape-rendering="crispEdges">
<g clip-path="url(#clip0_7_705)">
<path d="M53.9132 27.0088H26.9565V54.0176H53.9132V27.0088Z" fill="#1DC241"/>
<path d="M26.9566 27.0088H0V54.0176H26.9566V27.0088Z" fill="#1DC241"/>
<path d="M53.9132 54.0176H26.9565V81.0264H53.9132V54.0176Z" fill="#1DC241"/>
<path d="M80.8697 27.0088H53.9131V54.0176H80.8697V27.0088Z" fill="#1DC241"/>
<path d="M80.8697 0H53.9131V27.0088H80.8697V0Z" fill="#1DC241"/>
<path d="M80.8697 54.0176H53.9131V81.0264H80.8697V54.0176Z" fill="#1DC241"/>
<path d="M107.782 27.0088H80.8257V54.0176H107.782V27.0088Z" fill="#1DC241"/>
<path d="M107.782 54.0176H80.8257V81.0264H107.782V54.0176Z" fill="#1DC241"/>
<path d="M134.739 27.0088H107.783V54.0176H134.739V27.0088Z" fill="#1DC241"/>
<path d="M134.739 54.0176H107.783V81.0264H134.739V54.0176Z" fill="#1DC241"/>
<path d="M161.696 27.0088H134.739V54.0176H161.696V27.0088Z" fill="#1DC241"/>
<path d="M161.696 54.0176H134.739V81.0264H161.696V54.0176Z" fill="#1DC241"/>
<path d="M188.652 27.0088H161.696V54.0176H188.652V27.0088Z" fill="#1DC241"/>
<path d="M188.652 54.0176H161.696V81.0264H188.652V54.0176Z" fill="#1DC241"/>
<path d="M215.565 27.0088H188.608V54.0176H215.565V27.0088Z" fill="#1DC241"/>
<path d="M215.565 54.0176H188.608V81.0264H215.565V54.0176Z" fill="#1DC241"/>
<path d="M242.522 27.0088H215.565V54.0176H242.522V27.0088Z" fill="#1DC241"/>
<path d="M242.522 0H215.565V27.0088H242.522V0Z" fill="#1DC241"/>
<path d="M242.522 54.0176H215.565V81.0264H242.522V54.0176Z" fill="#1DC241"/>
<path d="M269.478 27.0088H242.521V54.0176H269.478V27.0088Z" fill="#1DC241"/>
<path d="M269.478 54.0176H242.521V81.0264H269.478V54.0176Z" fill="#1DC241"/>
<path d="M296.435 27.0088H269.479V54.0176H296.435V27.0088Z" fill="#1DC241"/>
<path d="M296.435 0H269.479V27.0088H296.435V0Z" fill="#1DC241"/>
<path d="M296.435 54.0176H269.479V81.0264H296.435V54.0176Z" fill="#1DC241"/>
<path d="M323.348 27.0088H296.391V54.0176H323.348V27.0088Z" fill="#1DC241"/>
<path d="M323.348 54.0176H296.391V81.0264H323.348V54.0176Z" fill="#1DC241"/>
<path d="M350.304 27.0088H323.348V54.0176H350.304V27.0088Z" fill="#1DC241"/>
<path d="M350.304 54.0176H323.348V81.0264H350.304V54.0176Z" fill="#1DC241"/>
<path d="M377.261 27.0088H350.304V54.0176H377.261V27.0088Z" fill="#1DC241"/>
<path d="M377.261 0H350.304V27.0088H377.261V0Z" fill="#1DC241"/>
<path d="M377.261 54.0176H350.304V81.0264H377.261V54.0176Z" fill="#1DC241"/>
<path d="M53.9132 80.9824H26.9565V107.991H53.9132V80.9824Z" fill="#1DC241"/>
<path d="M80.8697 80.9824H53.9131V107.991H80.8697V80.9824Z" fill="#1DC241"/>
<path d="M107.782 80.9824H80.8257V107.991H107.782V80.9824Z" fill="#1DC241"/>
<path d="M134.739 80.9824H107.783V107.991H134.739V80.9824Z" fill="#1DC241"/>
<path d="M134.739 107.991H107.783V135H134.739V107.991Z" fill="#1DC241"/>
<path d="M161.696 80.9824H134.739V107.991H161.696V80.9824Z" fill="#1DC241"/>
<path d="M188.652 80.9824H161.696V107.991H188.652V80.9824Z" fill="#1DC241"/>
<path d="M215.565 80.9824H188.608V107.991H215.565V80.9824Z" fill="#1DC241"/>
<path d="M242.522 80.9824H215.565V107.991H242.522V80.9824Z" fill="#1DC241"/>
<path d="M269.478 80.9824H242.521V107.991H269.478V80.9824Z" fill="#1DC241"/>
<path d="M296.435 80.9824H269.479V107.991H296.435V80.9824Z" fill="#1DC241"/>
<path d="M323.348 80.9824H296.391V107.991H323.348V80.9824Z" fill="#1DC241"/>
<path d="M350.304 80.9824H323.348V107.991H350.304V80.9824Z" fill="#1DC241"/>
<path d="M377.261 80.9824H350.304V107.991H377.261V80.9824Z" fill="#1DC241"/>
<path d="M350.304 107.991H323.348V135H350.304V107.991Z" fill="#1DC241"/>
<path d="M377.261 107.991H350.304V135H377.261V107.991Z" fill="#1DC241"/>
<path d="M404.217 27.0088H377.261V54.0176H404.217V27.0088Z" fill="#1DC241"/>
<path d="M404.217 54.0176H377.261V81.0264H404.217V54.0176Z" fill="#1DC241"/>
<path d="M404.217 80.9824H377.261V107.991H404.217V80.9824Z" fill="#1DC241"/>
<path d="M431.13 27.0088H404.173V54.0176H431.13V27.0088Z" fill="#1DC241"/>
<path d="M431.13 54.0176H404.173V81.0264H431.13V54.0176Z" fill="#1DC241"/>
<path d="M431.13 80.9824H404.173V107.991H431.13V80.9824Z" fill="#1DC241"/>
<path d="M458.086 27.0088H431.13V54.0176H458.086V27.0088Z" fill="#1DC241"/>
<path d="M458.086 54.0176H431.13V81.0264H458.086V54.0176Z" fill="#1DC241"/>
<path d="M458.086 80.9824H431.13V107.991H458.086V80.9824Z" fill="#1DC241"/>
<path d="M485.044 27.0088H458.087V54.0176H485.044V27.0088Z" fill="#1DC241"/>
<path d="M485.044 54.0176H458.087V81.0264H485.044V54.0176Z" fill="#1DC241"/>
<path d="M485.044 80.9824H458.087V107.991H485.044V80.9824Z" fill="#1DC241"/>
<path d="M512 80.9824H485.043V107.991H512V80.9824Z" fill="#1DC241"/>
</g>
<defs>
<clipPath id="clip0_7_705">
<rect width="512" height="135" fill="white"/>
</clipPath>
</defs>
</svg>
